<svg xmlns="http://www.w3.org/2000/svg" version="1.1" xmlns:xlink="http://www.w3.org/1999/xlink" width="2000" height="312" viewBox="0 0 2000 312"><svg xml:space="preserve" width="2000" height="312" data-version="2" data-id="lg_qllIjO097pZZr9XXhl" viewBox="0 0 247 312" x="0" y="0"><rect width="100%" height="100%" fill="transparent"></rect><path fill="#0080ff" d="M52.89 149.956h-1.46q-1.76 19.34-6.15 72.52-4.4 53.18-4.4 57.87 0 9.08 9.08 9.08l12.02-.29.58 1.17-2.63 13.18q-3.23-.29-11.58-.73t-16.84-.44q-7.33 0-15.09 1.03-7.77 1.02-10.11 1.31l1.46-13.47q9.38-1.18 13.48-6.01t5.27-16.55q2.93-27.55 7.77-74.28 4.83-46.73 4.83-52.3 0-7.62-6-11.43-6.01-3.81-19.19-4.69l-.88-1.46 2.34-10.26q3.81.3 14.94.88 11.14.59 17 .59 5.27 0 11.57-.44 6.3-.44 8.35-.73 11.72 37.79 22.71 70.17t18.02 51.42q7.03 19.05 8.79 23.74h1.46q4.11-10.85 18.76-51.57 14.65-40.73 31.93-93.18 0-.29 7.91.3l11.43.29q5.57 0 16.7-.73 11.14-.74 14.94-1.03l.59 1.17-1.46 10.84q-12.6 1.47-17.88 5.13-5.27 3.66-5.27 10.99 0 6.45 2.64 47.91 2.63 41.45 4.98 71.63 1.46 12.02 2.93 17.73 1.46 5.71 4.1 7.91 2.64 2.2 7.32 2.2 2.64 0 4.98-.29 2.35-.3 3.23-.3l.58 1.17-2.63 13.19q-2.93-.29-10.99-.59-8.06-.29-16.85-.29-7.91 0-17.73 1.03-9.81 1.02-12.74 1.31l1.17-13.47q9.08-1.18 13.19-4.69 4.1-3.52 4.1-9.96 0-6.16-4.25-57.14-4.25-50.98-5.71-69.44h-1.47l-56.55 155.88-7.03 2.05Z"></path><rect width="220.33" height="193.97" x="-110.17" y="-96.98" fill="none" rx="0" ry="0" transform="translate(116.97 211.4)"></rect><path fill="#0080ff" d="M32.224 65.05c.822 0 1.37-.548 1.37-1.37V8.048c0-1.097 1.096-2.193 2.192-2.193h151.276c1.096 0 2.192 1.096 2.192 2.192v41.656c0 .822.548 1.37 1.37 1.37s1.37-.548 1.37-1.37V8.048a4.912 4.912 0 0 0-4.932-4.933H35.786a4.912 4.912 0 0 0-4.933 4.932V63.68c0 .548.548 1.37 1.37 1.37m36.448 34.53h40.012c.822 0 1.37-.548 1.37-1.37s-.548-1.37-1.37-1.37H68.672c-.822 0-1.37.548-1.37 1.37s.548 1.37 1.37 1.37m41.108-10.414c0-.822-.548-1.37-1.37-1.37H58.258c-.822 0-1.37.548-1.37 1.37s.548 1.37 1.37 1.37h50.151c.549 0 1.37-.822 1.37-1.37"></path><path fill="#0080ff" d="M181.58 51.073c.823 0 1.371-.548 1.371-1.37V13.528c0-.822-.548-1.37-1.37-1.37H41.267c-.822 0-1.37.548-1.37 1.37V63.68c0 .822.548 1.37 1.37 1.37s1.37-.548 1.37-1.37V14.899h137.848v35.078c-.274.548.274 1.096 1.096 1.096m-86.873 85.23H88.13l6.303-4.659c.274-.274.548-.548.548-1.096l1.644-16.717h12.333c.822 0 1.37-.548 1.37-1.37s-.548-1.37-1.37-1.37H68.672c-.822 0-1.37.547-1.37 1.37s.548 1.37 1.37 1.37h24.939l-1.644 15.895-6.852 4.933c-.274.274-.548.548-.548 1.096 0 .274 0 1.37.822 2.192.274.548 1.096.822 2.467.822h6.851c.822 0 1.37-.548 1.37-1.37s-.548-1.096-1.37-1.096m124.419-11.51V63.132c0-.823-.548-1.37-1.37-1.37h-97.288c-.822 0-1.37.547-1.37 1.37v61.66c0 .823.548 1.371 1.37 1.371h97.287c.823 0 1.37-.548 1.37-1.37m-2.74-1.37h-94.548V64.502h94.547z"></path><path fill="#0080ff" d="M238.857 129.726h-13.154V58.199c0-2.467-2.193-4.66-4.659-4.66H117.179c-2.466 0-4.659 2.193-4.659 4.66v71.527H99.366c-1.644 0-3.015 1.37-3.015 3.014v1.645c0 2.74 12.607 4.658 12.607 4.658H228.99s12.607-1.918 12.607-4.658v-1.645c.274-1.644-1.096-3.014-2.74-3.014M115.261 58.199c0-1.097.822-1.919 1.918-1.919H220.77c1.096 0 1.918.822 1.918 1.919v71.527h-38.915c-.274 0-.822.274-1.096.548-.274.274-.274.548-.274.822 0 0 0 .274-.274.274h-26.035s-.274 0-.274-.274 0-.822-.274-1.096c-.274-.274-.548-.548-1.096-.548h-39.19zm123.87 75.637c-1.918.823-8.77 2.467-9.865 2.467h-119.76c-1.097 0-7.948-1.644-10.14-2.467v-1.096s0-.274.274-.274h53.988c.548 1.096 1.644 1.645 2.74 1.645h26.035c1.096 0 2.192-.823 2.74-1.645h53.988s.274 0 .274.274v1.096zM37.98 136.303H6.737c-.822 0-1.37-.548-1.37-1.37V71.627c0-.822.548-1.37 1.37-1.37h43.3c.822 0 1.37.548 1.37 1.37v18.91c0 .822.548 1.37 1.37 1.37s1.37-.548 1.37-1.37v-18.91c0-2.192-1.918-4.11-4.11-4.11h-43.3c-2.192 0-4.11 1.918-4.11 4.11v63.306c0 2.192 1.918 4.11 4.11 4.11h31.242c.822 0 1.37-.548 1.37-1.37s-.822-1.37-1.37-1.37"></path><path fill="#0080ff" d="M48.119 91.907c.822 0 1.37-.548 1.37-1.37V75.464c0-.822-.548-1.37-1.37-1.37H8.654c-.822 0-1.37.548-1.37 1.37v54.262c0 .822.548 1.37 1.37 1.37H37.98c.822 0 1.37-.548 1.37-1.37s-.548-1.37-1.37-1.37H10.026V76.833h36.722v13.703c0 .822.548 1.37 1.37 1.37"></path><circle r=".3" fill="#0080ff" transform="translate(28.39 72.17)scale(2.7405)"></circle><circle r=".6" fill="#0080ff" transform="translate(28.39 133.84)scale(2.7405)"></circle><path fill="#0080ff" d="M60.725 94.647H45.652c-2.192 0-4.11 1.919-4.11 4.111v36.449c0 2.192 1.918 4.11 4.11 4.11h15.073c2.192 0 4.11-1.918 4.11-4.11V98.484c0-2.192-1.644-3.837-4.11-3.837m-14.799 2.74H61c.822 0 1.37.549 1.37 1.371v2.467H44.83v-2.741c-.273-.548.275-1.096 1.097-1.096m16.17 30.968h-17.54v-24.664h17.54zm-1.371 7.948H45.652c-.822 0-1.37-.548-1.37-1.37v-3.837H61.82v3.837c.274.822-.274 1.37-1.096 1.37"></path><circle r=".6" fill="#0080ff" transform="translate(53.33 133.84)scale(2.7405)"></circle></svg></svg>